<svg xmlns="http://www.w3.org/2000/svg" viewBox="0 0 130 27.03"><defs><style>.cls-1{fill:#fff;}</style></defs><title>carpro biale</title><g id="Layer_2" data-name="Layer 2"><g id="Layer_1-2" data-name="Layer 1"><g id="Layer_1-2-2" data-name="Layer 1-2"><path class="cls-1" d="M126,4H60.55l4-4H130ZM57,26.76H51.63l-2-4.57H45v4.5H40.2V8.79H50.89A6.69,6.69,0,0,1,54.5,21.15ZM50.89,12.9v0a2.44,2.44,0,0,0-.66-.09H45v5.37h5.21a2.59,2.59,0,0,0,.68-.09,2.72,2.72,0,0,0,1.69-1.31,2.71,2.71,0,0,0-1.69-3.92Zm-18.75,11H24.55l-1.16,2.84H18.3L25.93,8.83h4.83L38.4,26.72H33.31Zm-3.79-9.59L26,20.37h4.68ZM9.72,22.37a4.93,4.93,0,0,0,4.19-2.28l4.18,2.35A9.81,9.81,0,0,1,9.72,27,9.5,9.5,0,0,1,0,17.74,9.5,9.5,0,0,1,9.72,8.48,9.8,9.8,0,0,1,18.09,13l-4.18,2.35a4.93,4.93,0,0,0-4.19-2.28,4.74,4.74,0,0,0-4.86,4.62h0a4.74,4.74,0,0,0,4.81,4.67ZM65.35,8.79h5.56a6.7,6.7,0,0,1,0,13.4H65.35v4.5h-4.8V8.79Zm0,9.38h4.87a2.68,2.68,0,1,0,0-5.36H65.35Zm19.5-9.38h5.89a6.69,6.69,0,0,1,3.61,12.36l2.48,5.61H91.48l-2-4.57H84.85v4.5h-4.8V8.79Zm0,9.39h5.21a2.59,2.59,0,0,0,.68-.09,2.72,2.72,0,0,0,1.69-1.31,2.68,2.68,0,0,0-1.67-3.88h0a2.44,2.44,0,0,0-.66-.09H84.85Zm24-9.7a9.49,9.49,0,0,1,9.72,9.25h0a9.73,9.73,0,0,1-19.44,0,9.49,9.49,0,0,1,9.71-9.26Zm0,13.89a4.74,4.74,0,0,0,4.86-4.62h0a4.87,4.87,0,0,0-9.72,0,4.74,4.74,0,0,0,4.85,4.63h0Zm12.48-13h-.63v2h-.54v-2h-.63V9h1.8Zm1.82,1.23.76-1.6h.7v2.4h-.52V9.65l-.7,1.55h-.5l-.71-1.55V11.4h-.52V9h.7Z"/></g></g></g></svg>